<svg version="1.1" id="Layer_2" xmlns="http://www.w3.org/2000/svg" x="0" y="0" viewBox="0 0 80 80" style="enable-background:new 0 0 80 80" xml:space="preserve"><style>.st4{fill:#fff}.st7{fill:#f1cc4b}.st10{fill:#50646f}</style><circle class="st10" cx="40.2" cy="40.2" r="40.2"/><path d="M63.5 45c0 .6-.5 1-1 1H17.8c-.6 0-1-.5-1-1V10c0-.6.5-1 1-1h44.6c.6 0 1 .5 1 1v35z" style="fill:#55ab99"/><path class="st4" d="M19.1 13.7h42.1V40H19.1z"/><path class="st10" d="M36.8 11.2h6.8v1.2h-6.8z"/><g><circle cx="40.2" cy="27.2" r="12.5" style="fill:#0c2c48"/><path class="st4" d="M39.5 14.5h1.3V40h-1.3z"/><path d="M38.8 32h-1.4l-1.1-2.9h-4l-1 2.9H30l3.6-9.5h1.3l3.9 9.5zm-2.9-3.9-1.7-4.4-1.6 4.4h3.3z" style="fill:#ed6b5a"/><g><path class="st7" d="M49.1 29.2c0 .9-.3 1.6-.9 2.1-.6.5-1.5.7-2.7.7H42v-9.5h3.4c.5 0 1 .1 1.4.2.4.1.7.3 1 .5.3.2.5.5.6.8.1.3.2.6.2 1 0 .9-.5 1.6-1.4 2 .3.1.6.2.8.3.2.2.4.3.6.5.1.2.3.4.3.7.2.2.2.5.2.7zm-5.8-2.8h2.1c.7 0 1.2-.1 1.5-.3.3-.2.5-.6.5-1.1 0-.2 0-.4-.1-.6-.1-.2-.2-.3-.4-.4-.2-.1-.4-.2-.7-.3-.3-.1-.6-.1-1-.1h-2v2.8zm0 4.4h2.3c1.5 0 2.3-.5 2.3-1.6 0-.3 0-.5-.1-.7-.1-.2-.2-.4-.4-.5-.2-.1-.4-.2-.7-.3-.3-.1-.7-.1-1.1-.1h-2.1v3.2z"/></g></g><g><path class="st10" d="M54.8 74.7v-6.8c0-5.6-4.1-10.2-9.4-11.1 1.2-1.3 1.9-3 1.9-4.9v-3.4c0-4-3.2-7.2-7.2-7.2s-7.2 3.2-7.2 7.2v3.4c0 1.9.7 3.6 1.9 4.9-5.3.9-9.4 5.5-9.4 11.1v6.8h29.4z"/><path d="M46.1 51.9c0 3.3-2.7 5.9-5.9 5.9-3.3 0-5.9-2.7-5.9-5.9v-3.4c0-3.3 2.7-5.9 5.9-5.9 3.3 0 5.9 2.7 5.9 5.9v3.4z" style="fill:#fca886"/><path class="st7" d="M31.8 73.5v-6.6H33v6.6h14.9v-6.6h1.2v6.6h4.4v-5.6c0-5.5-4.5-10-10-10h-6.7c-5.5 0-10 4.5-10 10v5.6h5z"/></g></svg>